<mxfile host="app.diagrams.net" agent="Mozilla/5.0 (Windows NT 10.0; Win64; x64) AppleWebKit/537.36 (KHTML, like Gecko) Chrome/127.0.0.0 Safari/537.36" version="24.7.7">
  <diagram name="Page-1" id="_XCosZje6-H8EwRStIAN">
    <mxGraphModel dx="1900" dy="1630" grid="1" gridSize="10" guides="1" tooltips="1" connect="1" arrows="1" fold="1" page="1" pageScale="1" pageWidth="850" pageHeight="1100" math="0" shadow="0">
      <root>
        <mxCell id="0" />
        <mxCell id="1" parent="0" />
        <mxCell id="tpY24qlCxXJvmTXxlrgN-1" value="USER" style="rounded=0;whiteSpace=wrap;html=1;strokeWidth=1;fontStyle=1;fontSize=14;" vertex="1" parent="1">
          <mxGeometry x="365" y="190" width="120" height="60" as="geometry" />
        </mxCell>
        <mxCell id="tpY24qlCxXJvmTXxlrgN-2" value="Pharmacy" style="rounded=0;whiteSpace=wrap;html=1;strokeWidth=1;fontStyle=1;fontSize=14;" vertex="1" parent="1">
          <mxGeometry x="720" y="530" width="120" height="60" as="geometry" />
        </mxCell>
        <mxCell id="tpY24qlCxXJvmTXxlrgN-3" value="&lt;p style=&quot;font-size: 14px;&quot; class=&quot;MsoNormal&quot;&gt;&lt;span style=&quot;font-size: 14px;&quot;&gt;&lt;span class=&quot;15&quot; style=&quot;font-family: Calibri; font-size: 14px;&quot;&gt;Medicine&amp;nbsp;&lt;/span&gt;&lt;/span&gt;&lt;/p&gt;" style="rounded=0;whiteSpace=wrap;html=1;strokeWidth=1;fontStyle=1;fontSize=14;" vertex="1" parent="1">
          <mxGeometry x="-370" y="657.5" width="120" height="60" as="geometry" />
        </mxCell>
        <mxCell id="tpY24qlCxXJvmTXxlrgN-4" value="&lt;p style=&quot;font-size: 14px;&quot; class=&quot;MsoNormal&quot;&gt;&lt;span style=&quot;font-size: 14px;&quot;&gt;&lt;span class=&quot;15&quot; style=&quot;font-family: Calibri; font-size: 14px;&quot;&gt;Review&amp;nbsp;&lt;/span&gt;&lt;/span&gt;&lt;/p&gt;" style="rounded=0;whiteSpace=wrap;html=1;strokeWidth=1;fontStyle=1;fontSize=14;" vertex="1" parent="1">
          <mxGeometry x="965" y="180" width="120" height="60" as="geometry" />
        </mxCell>
        <mxCell id="tpY24qlCxXJvmTXxlrgN-5" style="edgeStyle=orthogonalEdgeStyle;rounded=0;orthogonalLoop=1;jettySize=auto;html=1;exitX=0;exitY=0;exitDx=0;exitDy=0;entryX=0.5;entryY=0;entryDx=0;entryDy=0;endArrow=none;endFill=0;" edge="1" parent="1" source="tpY24qlCxXJvmTXxlrgN-35" target="tpY24qlCxXJvmTXxlrgN-35">
          <mxGeometry relative="1" as="geometry" />
        </mxCell>
        <mxCell id="tpY24qlCxXJvmTXxlrgN-6" value="&lt;p style=&quot;font-size: 14px;&quot; class=&quot;MsoNormal&quot;&gt;&lt;span class=&quot;15&quot; style=&quot;font-family: Calibri; font-size: 14px;&quot;&gt;Pharmacist&lt;/span&gt;&lt;/p&gt;" style="rounded=0;whiteSpace=wrap;html=1;strokeWidth=1;fontStyle=1;fontSize=14;" vertex="1" parent="1">
          <mxGeometry x="750" y="880" width="120" height="60" as="geometry" />
        </mxCell>
        <mxCell id="tpY24qlCxXJvmTXxlrgN-7" value="&lt;p style=&quot;font-size: 14px;&quot; class=&quot;MsoNormal&quot;&gt;&lt;span style=&quot;font-size: 14px;&quot;&gt;&lt;span class=&quot;15&quot; style=&quot;font-family: Calibri; font-size: 14px;&quot;&gt;inventory&lt;/span&gt;&lt;/span&gt;&lt;span class=&quot;15&quot; style=&quot;font-family: Calibri; font-size: 14px;&quot;&gt;&amp;nbsp;&lt;/span&gt;&lt;/p&gt;" style="whiteSpace=wrap;html=1;strokeWidth=1;fontStyle=1;fontSize=14;" vertex="1" parent="1">
          <mxGeometry x="-60" y="880" width="110" height="60" as="geometry" />
        </mxCell>
        <mxCell id="tpY24qlCxXJvmTXxlrgN-8" value="Own" style="rhombus;whiteSpace=wrap;html=1;strokeWidth=1;fontStyle=1;fontSize=14;" vertex="1" parent="1">
          <mxGeometry x="995" y="515" width="95" height="85" as="geometry" />
        </mxCell>
        <mxCell id="tpY24qlCxXJvmTXxlrgN-9" value="manage" style="rhombus;whiteSpace=wrap;html=1;strokeWidth=1;fontStyle=1;fontSize=14;" vertex="1" parent="1">
          <mxGeometry x="425" y="870" width="80" height="80" as="geometry" />
        </mxCell>
        <mxCell id="tpY24qlCxXJvmTXxlrgN-10" value="1" style="text;html=1;align=center;verticalAlign=middle;resizable=0;points=[];autosize=1;strokeColor=none;fillColor=none;strokeWidth=1;fontStyle=1;fontSize=14;" vertex="1" parent="1">
          <mxGeometry x="705" y="878" width="30" height="30" as="geometry" />
        </mxCell>
        <mxCell id="tpY24qlCxXJvmTXxlrgN-11" value="Has" style="rhombus;whiteSpace=wrap;html=1;strokeWidth=1;fontStyle=1;fontSize=14;" vertex="1" parent="1">
          <mxGeometry x="705" y="185" width="80" height="80" as="geometry" />
        </mxCell>
        <mxCell id="tpY24qlCxXJvmTXxlrgN-12" value="1" style="text;html=1;align=center;verticalAlign=middle;resizable=0;points=[];autosize=1;strokeColor=none;fillColor=none;strokeWidth=1;fontStyle=1;fontSize=14;" vertex="1" parent="1">
          <mxGeometry x="490" y="190" width="30" height="30" as="geometry" />
        </mxCell>
        <mxCell id="tpY24qlCxXJvmTXxlrgN-13" value="work" style="rhombus;whiteSpace=wrap;html=1;strokeWidth=1;fontStyle=1;fontSize=14;" vertex="1" parent="1">
          <mxGeometry x="760" y="690" width="80" height="80" as="geometry" />
        </mxCell>
        <mxCell id="tpY24qlCxXJvmTXxlrgN-14" value="exist at" style="rhombus;whiteSpace=wrap;html=1;strokeWidth=1;fontStyle=1;fontSize=14;" vertex="1" parent="1">
          <mxGeometry x="-340" y="880" width="80" height="80" as="geometry" />
        </mxCell>
        <mxCell id="tpY24qlCxXJvmTXxlrgN-15" value="m" style="text;html=1;align=center;verticalAlign=middle;resizable=0;points=[];autosize=1;strokeColor=none;fillColor=none;strokeWidth=1;fontStyle=1;fontSize=14;" vertex="1" parent="1">
          <mxGeometry x="-290" y="724" width="40" height="30" as="geometry" />
        </mxCell>
        <mxCell id="tpY24qlCxXJvmTXxlrgN-16" value="Have" style="rhombus;whiteSpace=wrap;html=1;" vertex="1" parent="1">
          <mxGeometry x="395" y="510" width="95" height="95" as="geometry" />
        </mxCell>
        <mxCell id="tpY24qlCxXJvmTXxlrgN-17" value="m" style="text;html=1;align=center;verticalAlign=middle;resizable=0;points=[];autosize=1;strokeColor=none;fillColor=none;" vertex="1" parent="1">
          <mxGeometry x="680" y="530" width="30" height="30" as="geometry" />
        </mxCell>
        <mxCell id="tpY24qlCxXJvmTXxlrgN-18" value="&lt;u&gt;id&lt;/u&gt;" style="ellipse;whiteSpace=wrap;html=1;" vertex="1" parent="1">
          <mxGeometry x="550" y="20" width="80" height="40" as="geometry" />
        </mxCell>
        <mxCell id="tpY24qlCxXJvmTXxlrgN-19" value="name" style="ellipse;whiteSpace=wrap;html=1;" vertex="1" parent="1">
          <mxGeometry x="475" y="45" width="80" height="50" as="geometry" />
        </mxCell>
        <mxCell id="tpY24qlCxXJvmTXxlrgN-20" value="password" style="ellipse;whiteSpace=wrap;html=1;" vertex="1" parent="1">
          <mxGeometry x="375" y="40" width="80" height="40" as="geometry" />
        </mxCell>
        <mxCell id="tpY24qlCxXJvmTXxlrgN-21" value="email" style="ellipse;whiteSpace=wrap;html=1;" vertex="1" parent="1">
          <mxGeometry x="435" y="-20" width="80" height="40" as="geometry" />
        </mxCell>
        <mxCell id="tpY24qlCxXJvmTXxlrgN-22" value="phone number" style="ellipse;whiteSpace=wrap;html=1;" vertex="1" parent="1">
          <mxGeometry x="350" y="92.5" width="70" height="40" as="geometry" />
        </mxCell>
        <mxCell id="tpY24qlCxXJvmTXxlrgN-23" value="&lt;u&gt;id&lt;/u&gt;" style="ellipse;whiteSpace=wrap;html=1;" vertex="1" parent="1">
          <mxGeometry x="-290" y="530" width="70" height="40" as="geometry" />
        </mxCell>
        <mxCell id="tpY24qlCxXJvmTXxlrgN-24" value="name" style="ellipse;whiteSpace=wrap;html=1;" vertex="1" parent="1">
          <mxGeometry x="-150" y="547.5" width="80" height="40" as="geometry" />
        </mxCell>
        <mxCell id="tpY24qlCxXJvmTXxlrgN-25" value="description" style="ellipse;whiteSpace=wrap;html=1;" vertex="1" parent="1">
          <mxGeometry x="-360" y="455" width="80" height="40" as="geometry" />
        </mxCell>
        <mxCell id="tpY24qlCxXJvmTXxlrgN-26" value="dosage" style="ellipse;whiteSpace=wrap;html=1;" vertex="1" parent="1">
          <mxGeometry x="-410" y="510" width="80" height="42" as="geometry" />
        </mxCell>
        <mxCell id="tpY24qlCxXJvmTXxlrgN-27" value="&lt;p class=&quot;MsoNormal&quot;&gt;&lt;span style=&quot;mso-spacerun:&#39;yes&#39;;font-family:Calibri;mso-fareast-font-family:宋体;&lt;br/&gt;font-size:10.5000pt;mso-font-kerning:1.0000pt;&quot;&gt;Price&amp;nbsp;&lt;/span&gt;&lt;/p&gt;" style="ellipse;whiteSpace=wrap;html=1;" vertex="1" parent="1">
          <mxGeometry x="-515" y="617.5" width="90" height="40" as="geometry" />
        </mxCell>
        <mxCell id="tpY24qlCxXJvmTXxlrgN-28" value="quantity" style="ellipse;whiteSpace=wrap;html=1;" vertex="1" parent="1">
          <mxGeometry x="-160" y="455" width="90" height="35" as="geometry" />
        </mxCell>
        <mxCell id="tpY24qlCxXJvmTXxlrgN-29" value="category" style="ellipse;shape=doubleEllipse;margin=3;whiteSpace=wrap;html=1;align=center;" vertex="1" parent="1">
          <mxGeometry x="-250" y="480" width="100" height="40" as="geometry" />
        </mxCell>
        <mxCell id="tpY24qlCxXJvmTXxlrgN-30" value="&lt;p class=&quot;MsoNormal&quot;&gt;&lt;span style=&quot;mso-spacerun:&#39;yes&#39;;font-family:Calibri;mso-fareast-font-family:宋体;&lt;br/&gt;font-size:10.5000pt;mso-font-kerning:1.0000pt;&quot;&gt;Manufacturer&amp;nbsp;&lt;/span&gt;&lt;/p&gt;" style="ellipse;shape=doubleEllipse;margin=3;whiteSpace=wrap;html=1;align=center;" vertex="1" parent="1">
          <mxGeometry x="-460" y="560" width="100" height="40" as="geometry" />
        </mxCell>
        <mxCell id="tpY24qlCxXJvmTXxlrgN-31" value="&lt;u&gt;id&lt;/u&gt;" style="ellipse;whiteSpace=wrap;html=1;" vertex="1" parent="1">
          <mxGeometry x="25" y="730" width="90" height="40" as="geometry" />
        </mxCell>
        <mxCell id="tpY24qlCxXJvmTXxlrgN-32" value="update date" style="ellipse;whiteSpace=wrap;html=1;" vertex="1" parent="1">
          <mxGeometry x="-50" y="684" width="100" height="40" as="geometry" />
        </mxCell>
        <mxCell id="tpY24qlCxXJvmTXxlrgN-33" value="quantity" style="ellipse;whiteSpace=wrap;html=1;" vertex="1" parent="1">
          <mxGeometry x="110" y="724" width="110" height="40" as="geometry" />
        </mxCell>
        <mxCell id="tpY24qlCxXJvmTXxlrgN-34" value="&lt;u&gt;id&lt;/u&gt;" style="ellipse;whiteSpace=wrap;html=1;" vertex="1" parent="1">
          <mxGeometry x="710" y="1040" width="95" height="40" as="geometry" />
        </mxCell>
        <mxCell id="tpY24qlCxXJvmTXxlrgN-35" value="fullname" style="ellipse;whiteSpace=wrap;html=1;" vertex="1" parent="1">
          <mxGeometry x="825" y="1030" width="85" height="40" as="geometry" />
        </mxCell>
        <mxCell id="tpY24qlCxXJvmTXxlrgN-36" value="email" style="ellipse;whiteSpace=wrap;html=1;" vertex="1" parent="1">
          <mxGeometry x="910" y="1050" width="90" height="40" as="geometry" />
        </mxCell>
        <mxCell id="tpY24qlCxXJvmTXxlrgN-37" value="password" style="ellipse;whiteSpace=wrap;html=1;" vertex="1" parent="1">
          <mxGeometry x="910" y="975" width="100" height="40" as="geometry" />
        </mxCell>
        <mxCell id="tpY24qlCxXJvmTXxlrgN-38" value="&lt;p class=&quot;MsoNormal&quot;&gt;&lt;span style=&quot;mso-spacerun:&#39;yes&#39;;font-family:Calibri;mso-fareast-font-family:宋体;&lt;br/&gt;font-size:10.5000pt;mso-font-kerning:1.0000pt;&quot;&gt;License Number&lt;/span&gt;&lt;/p&gt;" style="ellipse;whiteSpace=wrap;html=1;" vertex="1" parent="1">
          <mxGeometry x="612.5" y="1030" width="85" height="50" as="geometry" />
        </mxCell>
        <mxCell id="tpY24qlCxXJvmTXxlrgN-39" value="&lt;p class=&quot;MsoNormal&quot;&gt;&lt;span style=&quot;mso-spacerun:&#39;yes&#39;;font-family:Calibri;mso-fareast-font-family:宋体;&lt;br/&gt;font-size:20.0000pt;mso-font-kerning:1.0000pt;&quot;&gt;licence number&lt;/span&gt;&lt;/p&gt;" style="ellipse;whiteSpace=wrap;html=1;" vertex="1" parent="1">
          <mxGeometry x="915" y="375" width="100" height="40" as="geometry" />
        </mxCell>
        <mxCell id="tpY24qlCxXJvmTXxlrgN-40" value="&lt;span style=&quot;font-family: Calibri;&quot;&gt;contact numbers&lt;/span&gt;" style="ellipse;shape=doubleEllipse;margin=3;whiteSpace=wrap;html=1;align=center;" vertex="1" parent="1">
          <mxGeometry x="805" y="397.5" width="110" height="42.5" as="geometry" />
        </mxCell>
        <mxCell id="tpY24qlCxXJvmTXxlrgN-41" value="&lt;p class=&quot;MsoNormal&quot;&gt;&lt;span style=&quot;mso-spacerun:&#39;yes&#39;;font-family:Calibri;mso-fareast-font-family:宋体;&lt;br/&gt;font-size:20.0000pt;mso-font-kerning:1.0000pt;&quot;&gt;Drs name&lt;/span&gt;&lt;/p&gt;" style="ellipse;whiteSpace=wrap;html=1;" vertex="1" parent="1">
          <mxGeometry x="920" y="450" width="90" height="40" as="geometry" />
        </mxCell>
        <mxCell id="tpY24qlCxXJvmTXxlrgN-42" value="&lt;u&gt;id&lt;/u&gt;" style="ellipse;whiteSpace=wrap;html=1;" vertex="1" parent="1">
          <mxGeometry x="820" y="50" width="85" height="45" as="geometry" />
        </mxCell>
        <mxCell id="tpY24qlCxXJvmTXxlrgN-43" value="rating" style="ellipse;whiteSpace=wrap;html=1;" vertex="1" parent="1">
          <mxGeometry x="1070" y="70" width="105" height="40" as="geometry" />
        </mxCell>
        <mxCell id="tpY24qlCxXJvmTXxlrgN-44" value="comment" style="ellipse;whiteSpace=wrap;html=1;" vertex="1" parent="1">
          <mxGeometry x="910" y="34" width="90" height="40" as="geometry" />
        </mxCell>
        <mxCell id="tpY24qlCxXJvmTXxlrgN-45" value="date" style="ellipse;whiteSpace=wrap;html=1;" vertex="1" parent="1">
          <mxGeometry x="1010" y="34" width="80" height="40" as="geometry" />
        </mxCell>
        <mxCell id="tpY24qlCxXJvmTXxlrgN-46" value="name" style="ellipse;whiteSpace=wrap;html=1;" vertex="1" parent="1">
          <mxGeometry x="717.5" y="392.5" width="80" height="40" as="geometry" />
        </mxCell>
        <mxCell id="tpY24qlCxXJvmTXxlrgN-47" value="email" style="ellipse;whiteSpace=wrap;html=1;" vertex="1" parent="1">
          <mxGeometry x="760" y="335" width="100" height="40" as="geometry" />
        </mxCell>
        <mxCell id="tpY24qlCxXJvmTXxlrgN-48" value="favorite pharmcy" style="ellipse;whiteSpace=wrap;html=1;align=center;" vertex="1" parent="1">
          <mxGeometry x="400" y="660" width="100" height="40" as="geometry" />
        </mxCell>
        <mxCell id="tpY24qlCxXJvmTXxlrgN-49" value="address" style="ellipse;whiteSpace=wrap;html=1;align=center;" vertex="1" parent="1">
          <mxGeometry x="605" y="352.5" width="100" height="40" as="geometry" />
        </mxCell>
        <mxCell id="tpY24qlCxXJvmTXxlrgN-50" value="&lt;p class=&quot;MsoNormal&quot;&gt;&lt;span style=&quot;mso-spacerun:&#39;yes&#39;;font-family:Calibri;mso-fareast-font-family:宋体;&lt;br/&gt;font-size:20.0000pt;mso-font-kerning:1.0000pt;&quot;&gt;city&lt;/span&gt;&lt;/p&gt;" style="ellipse;whiteSpace=wrap;html=1;" vertex="1" parent="1">
          <mxGeometry x="645" y="295" width="100" height="40" as="geometry" />
        </mxCell>
        <mxCell id="tpY24qlCxXJvmTXxlrgN-51" value="street" style="ellipse;whiteSpace=wrap;html=1;" vertex="1" parent="1">
          <mxGeometry x="555" y="282.5" width="82.5" height="40" as="geometry" />
        </mxCell>
        <mxCell id="tpY24qlCxXJvmTXxlrgN-52" value="&lt;p class=&quot;MsoNormal&quot;&gt;&lt;span style=&quot;mso-spacerun:&#39;yes&#39;;font-family:Calibri;mso-fareast-font-family:宋体;&lt;br/&gt;font-size:20.0000pt;mso-font-kerning:1.0000pt;&quot;&gt;locationURL&lt;/span&gt;&lt;/p&gt;" style="ellipse;whiteSpace=wrap;html=1;" vertex="1" parent="1">
          <mxGeometry x="515" y="330" width="80" height="30" as="geometry" />
        </mxCell>
        <mxCell id="tpY24qlCxXJvmTXxlrgN-53" value="location" style="ellipse;whiteSpace=wrap;html=1;" vertex="1" parent="1">
          <mxGeometry x="250" y="60" width="90" height="50" as="geometry" />
        </mxCell>
        <mxCell id="tpY24qlCxXJvmTXxlrgN-54" value="lang" style="ellipse;whiteSpace=wrap;html=1;" vertex="1" parent="1">
          <mxGeometry x="175" y="-6" width="90" height="40" as="geometry" />
        </mxCell>
        <mxCell id="tpY24qlCxXJvmTXxlrgN-55" value="latuted" style="ellipse;whiteSpace=wrap;html=1;" vertex="1" parent="1">
          <mxGeometry x="285" width="90" height="28" as="geometry" />
        </mxCell>
        <mxCell id="tpY24qlCxXJvmTXxlrgN-56" value="" style="endArrow=none;html=1;rounded=0;entryX=0.5;entryY=1;entryDx=0;entryDy=0;" edge="1" parent="1" target="tpY24qlCxXJvmTXxlrgN-40">
          <mxGeometry width="50" height="50" relative="1" as="geometry">
            <mxPoint x="830" y="530" as="sourcePoint" />
            <mxPoint x="910" y="780" as="targetPoint" />
          </mxGeometry>
        </mxCell>
        <mxCell id="tpY24qlCxXJvmTXxlrgN-57" value="" style="endArrow=none;html=1;rounded=0;entryX=0.683;entryY=1.09;entryDx=0;entryDy=0;exitX=0.083;exitY=0;exitDx=0;exitDy=0;exitPerimeter=0;entryPerimeter=0;" edge="1" parent="1" source="tpY24qlCxXJvmTXxlrgN-2" target="tpY24qlCxXJvmTXxlrgN-101">
          <mxGeometry width="50" height="50" relative="1" as="geometry">
            <mxPoint x="860" y="830" as="sourcePoint" />
            <mxPoint x="910" y="780" as="targetPoint" />
          </mxGeometry>
        </mxCell>
        <mxCell id="tpY24qlCxXJvmTXxlrgN-58" value="" style="endArrow=none;html=1;rounded=0;entryX=0.05;entryY=0.188;entryDx=0;entryDy=0;exitX=0.732;exitY=0.894;exitDx=0;exitDy=0;exitPerimeter=0;entryPerimeter=0;" edge="1" parent="1" source="tpY24qlCxXJvmTXxlrgN-52" target="tpY24qlCxXJvmTXxlrgN-49">
          <mxGeometry width="50" height="50" relative="1" as="geometry">
            <mxPoint x="443.75" y="430" as="sourcePoint" />
            <mxPoint x="493.75" y="380" as="targetPoint" />
          </mxGeometry>
        </mxCell>
        <mxCell id="tpY24qlCxXJvmTXxlrgN-59" value="" style="endArrow=none;html=1;rounded=0;exitX=0.679;exitY=1.012;exitDx=0;exitDy=0;exitPerimeter=0;" edge="1" parent="1" source="tpY24qlCxXJvmTXxlrgN-51">
          <mxGeometry width="50" height="50" relative="1" as="geometry">
            <mxPoint x="510" y="415" as="sourcePoint" />
            <mxPoint x="640" y="350" as="targetPoint" />
          </mxGeometry>
        </mxCell>
        <mxCell id="tpY24qlCxXJvmTXxlrgN-60" value="" style="endArrow=none;html=1;rounded=0;exitX=0.5;exitY=1;exitDx=0;exitDy=0;" edge="1" parent="1" source="tpY24qlCxXJvmTXxlrgN-50">
          <mxGeometry width="50" height="50" relative="1" as="geometry">
            <mxPoint x="618.75" y="415" as="sourcePoint" />
            <mxPoint x="670" y="350" as="targetPoint" />
          </mxGeometry>
        </mxCell>
        <mxCell id="tpY24qlCxXJvmTXxlrgN-61" value="" style="endArrow=none;html=1;rounded=0;entryX=1;entryY=0;entryDx=0;entryDy=0;exitX=0.267;exitY=1.053;exitDx=0;exitDy=0;exitPerimeter=0;" edge="1" parent="1" source="tpY24qlCxXJvmTXxlrgN-39" target="tpY24qlCxXJvmTXxlrgN-2">
          <mxGeometry width="50" height="50" relative="1" as="geometry">
            <mxPoint x="910" y="1090" as="sourcePoint" />
            <mxPoint x="960" y="1040" as="targetPoint" />
          </mxGeometry>
        </mxCell>
        <mxCell id="tpY24qlCxXJvmTXxlrgN-62" value="" style="endArrow=none;html=1;rounded=0;entryX=1;entryY=0.25;entryDx=0;entryDy=0;" edge="1" parent="1" target="tpY24qlCxXJvmTXxlrgN-2">
          <mxGeometry width="50" height="50" relative="1" as="geometry">
            <mxPoint x="940" y="490" as="sourcePoint" />
            <mxPoint x="960" y="1040" as="targetPoint" />
          </mxGeometry>
        </mxCell>
        <mxCell id="tpY24qlCxXJvmTXxlrgN-63" style="edgeStyle=orthogonalEdgeStyle;rounded=0;orthogonalLoop=1;jettySize=auto;html=1;exitX=0.5;exitY=1;exitDx=0;exitDy=0;" edge="1" parent="1">
          <mxGeometry relative="1" as="geometry">
            <mxPoint x="885" y="910" as="sourcePoint" />
            <mxPoint x="885" y="910" as="targetPoint" />
          </mxGeometry>
        </mxCell>
        <mxCell id="tpY24qlCxXJvmTXxlrgN-64" value="1" style="text;html=1;align=center;verticalAlign=middle;whiteSpace=wrap;rounded=0;" vertex="1" parent="1">
          <mxGeometry x="40" y="880" width="60" height="30" as="geometry" />
        </mxCell>
        <mxCell id="tpY24qlCxXJvmTXxlrgN-65" value="1" style="text;html=1;align=center;verticalAlign=middle;whiteSpace=wrap;rounded=0;" vertex="1" parent="1">
          <mxGeometry x="790" y="850" width="60" height="30" as="geometry" />
        </mxCell>
        <mxCell id="tpY24qlCxXJvmTXxlrgN-66" value="" style="endArrow=none;html=1;rounded=0;exitX=0.438;exitY=-0.012;exitDx=0;exitDy=0;exitPerimeter=0;" edge="1" parent="1" source="tpY24qlCxXJvmTXxlrgN-6">
          <mxGeometry width="50" height="50" relative="1" as="geometry">
            <mxPoint x="807.5" y="879.9999999999999" as="sourcePoint" />
            <mxPoint x="800" y="770" as="targetPoint" />
          </mxGeometry>
        </mxCell>
        <mxCell id="tpY24qlCxXJvmTXxlrgN-67" value="" style="endArrow=none;html=1;rounded=0;entryX=0.656;entryY=1.022;entryDx=0;entryDy=0;entryPerimeter=0;" edge="1" parent="1" source="tpY24qlCxXJvmTXxlrgN-13" target="tpY24qlCxXJvmTXxlrgN-2">
          <mxGeometry width="50" height="50" relative="1" as="geometry">
            <mxPoint x="955" y="1100" as="sourcePoint" />
            <mxPoint x="1005" y="1050" as="targetPoint" />
          </mxGeometry>
        </mxCell>
        <mxCell id="tpY24qlCxXJvmTXxlrgN-68" value="branch" style="ellipse;whiteSpace=wrap;html=1;" vertex="1" parent="1">
          <mxGeometry x="405" y="1010" width="120" height="50" as="geometry" />
        </mxCell>
        <mxCell id="tpY24qlCxXJvmTXxlrgN-69" value="" style="endArrow=none;html=1;rounded=0;entryX=0.5;entryY=1;entryDx=0;entryDy=0;exitX=0.5;exitY=0;exitDx=0;exitDy=0;" edge="1" parent="1" source="tpY24qlCxXJvmTXxlrgN-68" target="tpY24qlCxXJvmTXxlrgN-9">
          <mxGeometry width="50" height="50" relative="1" as="geometry">
            <mxPoint x="275" y="1580" as="sourcePoint" />
            <mxPoint x="325" y="1530" as="targetPoint" />
          </mxGeometry>
        </mxCell>
        <mxCell id="tpY24qlCxXJvmTXxlrgN-70" value="" style="endArrow=none;html=1;rounded=0;" edge="1" parent="1" source="tpY24qlCxXJvmTXxlrgN-101">
          <mxGeometry width="50" height="50" relative="1" as="geometry">
            <mxPoint x="660" y="459.41" as="sourcePoint" />
            <mxPoint x="690" y="459.41" as="targetPoint" />
          </mxGeometry>
        </mxCell>
        <mxCell id="tpY24qlCxXJvmTXxlrgN-71" value="" style="endArrow=none;html=1;rounded=0;entryX=0.5;entryY=0;entryDx=0;entryDy=0;exitX=0.5;exitY=1;exitDx=0;exitDy=0;" edge="1" parent="1" source="tpY24qlCxXJvmTXxlrgN-46" target="tpY24qlCxXJvmTXxlrgN-2">
          <mxGeometry width="50" height="50" relative="1" as="geometry">
            <mxPoint x="760" y="420" as="sourcePoint" />
            <mxPoint x="630" y="829" as="targetPoint" />
          </mxGeometry>
        </mxCell>
        <mxCell id="tpY24qlCxXJvmTXxlrgN-72" value="" style="endArrow=none;html=1;rounded=0;entryX=0;entryY=0.5;entryDx=0;entryDy=0;exitX=1;exitY=0.5;exitDx=0;exitDy=0;" edge="1" parent="1" source="tpY24qlCxXJvmTXxlrgN-9" target="tpY24qlCxXJvmTXxlrgN-6">
          <mxGeometry width="50" height="50" relative="1" as="geometry">
            <mxPoint x="237.64" y="1094.8" as="sourcePoint" />
            <mxPoint x="730.0000000000001" y="895.1999999999998" as="targetPoint" />
          </mxGeometry>
        </mxCell>
        <mxCell id="tpY24qlCxXJvmTXxlrgN-73" value="m" style="text;html=1;align=center;verticalAlign=middle;whiteSpace=wrap;rounded=0;" vertex="1" parent="1">
          <mxGeometry x="905" y="190" width="60" height="30" as="geometry" />
        </mxCell>
        <mxCell id="tpY24qlCxXJvmTXxlrgN-74" value="m" style="text;html=1;align=center;verticalAlign=middle;whiteSpace=wrap;rounded=0;" vertex="1" parent="1">
          <mxGeometry x="430" y="252.5" width="60" height="30" as="geometry" />
        </mxCell>
        <mxCell id="tpY24qlCxXJvmTXxlrgN-75" value="m" style="text;html=1;align=center;verticalAlign=middle;whiteSpace=wrap;rounded=0;" vertex="1" parent="1">
          <mxGeometry x="-120" y="880" width="60" height="30" as="geometry" />
        </mxCell>
        <mxCell id="tpY24qlCxXJvmTXxlrgN-76" value="" style="endArrow=none;html=1;rounded=0;entryX=0.593;entryY=0.961;entryDx=0;entryDy=0;exitX=0.5;exitY=0;exitDx=0;exitDy=0;entryPerimeter=0;" edge="1" parent="1" source="tpY24qlCxXJvmTXxlrgN-16" target="tpY24qlCxXJvmTXxlrgN-1">
          <mxGeometry width="50" height="50" relative="1" as="geometry">
            <mxPoint x="460" y="540" as="sourcePoint" />
            <mxPoint x="510" y="490" as="targetPoint" />
          </mxGeometry>
        </mxCell>
        <mxCell id="tpY24qlCxXJvmTXxlrgN-77" style="edgeStyle=orthogonalEdgeStyle;rounded=0;orthogonalLoop=1;jettySize=auto;html=1;exitX=0.5;exitY=1;exitDx=0;exitDy=0;" edge="1" parent="1" source="tpY24qlCxXJvmTXxlrgN-74" target="tpY24qlCxXJvmTXxlrgN-74">
          <mxGeometry relative="1" as="geometry" />
        </mxCell>
        <mxCell id="tpY24qlCxXJvmTXxlrgN-78" value="" style="endArrow=none;html=1;rounded=0;entryX=0.38;entryY=1.024;entryDx=0;entryDy=0;entryPerimeter=0;exitX=0.906;exitY=0.004;exitDx=0;exitDy=0;exitPerimeter=0;" edge="1" parent="1" source="tpY24qlCxXJvmTXxlrgN-1" target="tpY24qlCxXJvmTXxlrgN-18">
          <mxGeometry width="50" height="50" relative="1" as="geometry">
            <mxPoint x="455" y="190" as="sourcePoint" />
            <mxPoint x="505" y="140" as="targetPoint" />
          </mxGeometry>
        </mxCell>
        <mxCell id="tpY24qlCxXJvmTXxlrgN-79" value="" style="endArrow=none;html=1;rounded=0;" edge="1" parent="1">
          <mxGeometry width="50" height="50" relative="1" as="geometry">
            <mxPoint x="575" y="50" as="sourcePoint" />
            <mxPoint x="610" y="50" as="targetPoint" />
          </mxGeometry>
        </mxCell>
        <mxCell id="tpY24qlCxXJvmTXxlrgN-80" value="" style="endArrow=none;html=1;rounded=0;exitX=0.75;exitY=0;exitDx=0;exitDy=0;entryX=0.5;entryY=1;entryDx=0;entryDy=0;" edge="1" parent="1" source="tpY24qlCxXJvmTXxlrgN-1" target="tpY24qlCxXJvmTXxlrgN-19">
          <mxGeometry width="50" height="50" relative="1" as="geometry">
            <mxPoint x="370" y="190" as="sourcePoint" />
            <mxPoint x="420" y="140" as="targetPoint" />
          </mxGeometry>
        </mxCell>
        <mxCell id="tpY24qlCxXJvmTXxlrgN-81" value="" style="endArrow=none;html=1;rounded=0;entryX=0.5;entryY=1;entryDx=0;entryDy=0;" edge="1" parent="1" target="tpY24qlCxXJvmTXxlrgN-21">
          <mxGeometry width="50" height="50" relative="1" as="geometry">
            <mxPoint x="441" y="188" as="sourcePoint" />
            <mxPoint x="415" y="130" as="targetPoint" />
          </mxGeometry>
        </mxCell>
        <mxCell id="tpY24qlCxXJvmTXxlrgN-82" value="" style="endArrow=none;html=1;rounded=0;entryX=0.625;entryY=1;entryDx=0;entryDy=0;entryPerimeter=0;exitX=0.5;exitY=0;exitDx=0;exitDy=0;" edge="1" parent="1" source="tpY24qlCxXJvmTXxlrgN-1" target="tpY24qlCxXJvmTXxlrgN-20">
          <mxGeometry width="50" height="50" relative="1" as="geometry">
            <mxPoint x="385" y="192" as="sourcePoint" />
            <mxPoint x="345" y="120" as="targetPoint" />
          </mxGeometry>
        </mxCell>
        <mxCell id="tpY24qlCxXJvmTXxlrgN-83" value="" style="endArrow=none;html=1;rounded=0;exitX=0.397;exitY=0.035;exitDx=0;exitDy=0;entryX=0.5;entryY=1;entryDx=0;entryDy=0;exitPerimeter=0;" edge="1" parent="1" source="tpY24qlCxXJvmTXxlrgN-1" target="tpY24qlCxXJvmTXxlrgN-22">
          <mxGeometry width="50" height="50" relative="1" as="geometry">
            <mxPoint x="350" y="210" as="sourcePoint" />
            <mxPoint x="330" y="160" as="targetPoint" />
          </mxGeometry>
        </mxCell>
        <mxCell id="tpY24qlCxXJvmTXxlrgN-84" value="" style="endArrow=none;html=1;rounded=0;exitX=0.25;exitY=0;exitDx=0;exitDy=0;entryX=1;entryY=1;entryDx=0;entryDy=0;" edge="1" parent="1" source="tpY24qlCxXJvmTXxlrgN-1" target="tpY24qlCxXJvmTXxlrgN-53">
          <mxGeometry width="50" height="50" relative="1" as="geometry">
            <mxPoint x="365" y="170" as="sourcePoint" />
            <mxPoint x="315" y="100" as="targetPoint" />
          </mxGeometry>
        </mxCell>
        <mxCell id="tpY24qlCxXJvmTXxlrgN-85" value="" style="endArrow=none;html=1;rounded=0;" edge="1" parent="1">
          <mxGeometry width="50" height="50" relative="1" as="geometry">
            <mxPoint x="265" y="66.5" as="sourcePoint" />
            <mxPoint x="235" y="34" as="targetPoint" />
          </mxGeometry>
        </mxCell>
        <mxCell id="tpY24qlCxXJvmTXxlrgN-86" value="" style="endArrow=none;html=1;rounded=0;exitX=0.5;exitY=0;exitDx=0;exitDy=0;" edge="1" parent="1" source="tpY24qlCxXJvmTXxlrgN-53">
          <mxGeometry width="50" height="50" relative="1" as="geometry">
            <mxPoint x="285" y="68" as="sourcePoint" />
            <mxPoint x="325" y="28" as="targetPoint" />
          </mxGeometry>
        </mxCell>
        <mxCell id="tpY24qlCxXJvmTXxlrgN-87" value="" style="endArrow=none;html=1;rounded=0;" edge="1" parent="1">
          <mxGeometry width="50" height="50" relative="1" as="geometry">
            <mxPoint x="485" y="224" as="sourcePoint" />
            <mxPoint x="705" y="224" as="targetPoint" />
          </mxGeometry>
        </mxCell>
        <mxCell id="tpY24qlCxXJvmTXxlrgN-88" value="" style="endArrow=none;html=1;rounded=0;" edge="1" parent="1">
          <mxGeometry width="50" height="50" relative="1" as="geometry">
            <mxPoint x="785" y="225" as="sourcePoint" />
            <mxPoint x="965" y="225" as="targetPoint" />
          </mxGeometry>
        </mxCell>
        <mxCell id="tpY24qlCxXJvmTXxlrgN-89" value="" style="endArrow=none;html=1;rounded=0;exitX=0;exitY=0;exitDx=0;exitDy=0;" edge="1" parent="1" source="tpY24qlCxXJvmTXxlrgN-4">
          <mxGeometry width="50" height="50" relative="1" as="geometry">
            <mxPoint x="947.5" y="157.5" as="sourcePoint" />
            <mxPoint x="892.5" y="92.5" as="targetPoint" />
          </mxGeometry>
        </mxCell>
        <mxCell id="tpY24qlCxXJvmTXxlrgN-90" value="" style="endArrow=none;html=1;rounded=0;entryX=0.414;entryY=0.974;entryDx=0;entryDy=0;entryPerimeter=0;exitX=0.25;exitY=0;exitDx=0;exitDy=0;" edge="1" parent="1" source="tpY24qlCxXJvmTXxlrgN-4" target="tpY24qlCxXJvmTXxlrgN-44">
          <mxGeometry width="50" height="50" relative="1" as="geometry">
            <mxPoint x="995" y="170" as="sourcePoint" />
            <mxPoint x="975" y="95" as="targetPoint" />
          </mxGeometry>
        </mxCell>
        <mxCell id="tpY24qlCxXJvmTXxlrgN-91" value="" style="endArrow=none;html=1;rounded=0;entryX=0.5;entryY=1;entryDx=0;entryDy=0;exitX=0.5;exitY=0;exitDx=0;exitDy=0;" edge="1" parent="1" source="tpY24qlCxXJvmTXxlrgN-4" target="tpY24qlCxXJvmTXxlrgN-45">
          <mxGeometry width="50" height="50" relative="1" as="geometry">
            <mxPoint x="1035" y="170" as="sourcePoint" />
            <mxPoint x="1022.5" y="92.5" as="targetPoint" />
          </mxGeometry>
        </mxCell>
        <mxCell id="tpY24qlCxXJvmTXxlrgN-92" value="" style="endArrow=none;html=1;rounded=0;entryX=0.321;entryY=0.973;entryDx=0;entryDy=0;entryPerimeter=0;exitX=0.75;exitY=0;exitDx=0;exitDy=0;" edge="1" parent="1" source="tpY24qlCxXJvmTXxlrgN-4" target="tpY24qlCxXJvmTXxlrgN-43">
          <mxGeometry width="50" height="50" relative="1" as="geometry">
            <mxPoint x="1065" y="170" as="sourcePoint" />
            <mxPoint x="1165" y="80" as="targetPoint" />
          </mxGeometry>
        </mxCell>
        <mxCell id="tpY24qlCxXJvmTXxlrgN-93" value="" style="endArrow=none;html=1;rounded=0;" edge="1" parent="1">
          <mxGeometry width="50" height="50" relative="1" as="geometry">
            <mxPoint x="840" y="84.41000000000003" as="sourcePoint" />
            <mxPoint x="885" y="84.41000000000003" as="targetPoint" />
          </mxGeometry>
        </mxCell>
        <mxCell id="tpY24qlCxXJvmTXxlrgN-94" value="" style="endArrow=none;html=1;rounded=0;exitX=1;exitY=0.5;exitDx=0;exitDy=0;entryX=0;entryY=0.5;entryDx=0;entryDy=0;" edge="1" parent="1" source="tpY24qlCxXJvmTXxlrgN-16" target="tpY24qlCxXJvmTXxlrgN-2">
          <mxGeometry width="50" height="50" relative="1" as="geometry">
            <mxPoint x="460" y="570" as="sourcePoint" />
            <mxPoint x="715" y="570" as="targetPoint" />
          </mxGeometry>
        </mxCell>
        <mxCell id="tpY24qlCxXJvmTXxlrgN-95" value="" style="endArrow=none;html=1;rounded=0;" edge="1" parent="1">
          <mxGeometry width="50" height="50" relative="1" as="geometry">
            <mxPoint x="441.90999999999997" y="660" as="sourcePoint" />
            <mxPoint x="442" y="600" as="targetPoint" />
          </mxGeometry>
        </mxCell>
        <mxCell id="tpY24qlCxXJvmTXxlrgN-96" value="" style="endArrow=none;html=1;rounded=0;entryX=0.583;entryY=1;entryDx=0;entryDy=0;exitX=0.5;exitY=0;exitDx=0;exitDy=0;entryPerimeter=0;" edge="1" parent="1" source="tpY24qlCxXJvmTXxlrgN-8" target="tpY24qlCxXJvmTXxlrgN-4">
          <mxGeometry width="50" height="50" relative="1" as="geometry">
            <mxPoint x="1020" y="510" as="sourcePoint" />
            <mxPoint x="1020" y="430" as="targetPoint" />
          </mxGeometry>
        </mxCell>
        <mxCell id="tpY24qlCxXJvmTXxlrgN-97" value="m" style="text;html=1;align=center;verticalAlign=middle;whiteSpace=wrap;rounded=0;" vertex="1" parent="1">
          <mxGeometry x="975" y="247.5" width="60" height="30" as="geometry" />
        </mxCell>
        <mxCell id="tpY24qlCxXJvmTXxlrgN-98" value="" style="endArrow=none;html=1;rounded=0;entryX=0;entryY=0.5;entryDx=0;entryDy=0;exitX=1;exitY=0.5;exitDx=0;exitDy=0;" edge="1" parent="1" source="tpY24qlCxXJvmTXxlrgN-2" target="tpY24qlCxXJvmTXxlrgN-8">
          <mxGeometry width="50" height="50" relative="1" as="geometry">
            <mxPoint x="840" y="560" as="sourcePoint" />
            <mxPoint x="980" y="550.8199999999999" as="targetPoint" />
          </mxGeometry>
        </mxCell>
        <mxCell id="tpY24qlCxXJvmTXxlrgN-99" value="" style="endArrow=none;html=1;rounded=0;exitX=0.664;exitY=-0.061;exitDx=0;exitDy=0;exitPerimeter=0;entryX=0.5;entryY=1;entryDx=0;entryDy=0;" edge="1" parent="1" source="tpY24qlCxXJvmTXxlrgN-2" target="tpY24qlCxXJvmTXxlrgN-47">
          <mxGeometry width="50" height="50" relative="1" as="geometry">
            <mxPoint x="740" y="470" as="sourcePoint" />
            <mxPoint x="730" y="380" as="targetPoint" />
          </mxGeometry>
        </mxCell>
        <mxCell id="tpY24qlCxXJvmTXxlrgN-100" value="" style="endArrow=none;html=1;rounded=0;" edge="1" parent="1" target="tpY24qlCxXJvmTXxlrgN-101">
          <mxGeometry width="50" height="50" relative="1" as="geometry">
            <mxPoint x="660" y="459.41" as="sourcePoint" />
            <mxPoint x="690" y="459.41" as="targetPoint" />
          </mxGeometry>
        </mxCell>
        <mxCell id="tpY24qlCxXJvmTXxlrgN-101" value="&lt;u&gt;id&lt;/u&gt;" style="ellipse;whiteSpace=wrap;html=1;" vertex="1" parent="1">
          <mxGeometry x="590" y="440" width="90" height="40" as="geometry" />
        </mxCell>
        <mxCell id="tpY24qlCxXJvmTXxlrgN-102" value="" style="endArrow=none;html=1;rounded=0;" edge="1" parent="1">
          <mxGeometry width="50" height="50" relative="1" as="geometry">
            <mxPoint x="755" y="530" as="sourcePoint" />
            <mxPoint x="670" y="392.5" as="targetPoint" />
          </mxGeometry>
        </mxCell>
        <mxCell id="tpY24qlCxXJvmTXxlrgN-103" value="1" style="text;html=1;align=center;verticalAlign=middle;whiteSpace=wrap;rounded=0;" vertex="1" parent="1">
          <mxGeometry x="805" y="600" width="60" height="30" as="geometry" />
        </mxCell>
        <mxCell id="tpY24qlCxXJvmTXxlrgN-104" value="" style="endArrow=none;html=1;rounded=0;entryX=0.355;entryY=0.919;entryDx=0;entryDy=0;entryPerimeter=0;" edge="1" parent="1" target="tpY24qlCxXJvmTXxlrgN-13">
          <mxGeometry width="50" height="50" relative="1" as="geometry">
            <mxPoint x="788" y="880" as="sourcePoint" />
            <mxPoint x="785" y="754" as="targetPoint" />
          </mxGeometry>
        </mxCell>
        <mxCell id="tpY24qlCxXJvmTXxlrgN-105" value="" style="endArrow=none;html=1;rounded=0;entryX=0.25;entryY=1;entryDx=0;entryDy=0;exitX=0.719;exitY=-0.002;exitDx=0;exitDy=0;exitPerimeter=0;" edge="1" parent="1" source="tpY24qlCxXJvmTXxlrgN-38" target="tpY24qlCxXJvmTXxlrgN-6">
          <mxGeometry width="50" height="50" relative="1" as="geometry">
            <mxPoint x="571.25" y="995" as="sourcePoint" />
            <mxPoint x="621.25" y="945" as="targetPoint" />
          </mxGeometry>
        </mxCell>
        <mxCell id="tpY24qlCxXJvmTXxlrgN-106" value="" style="endArrow=none;html=1;rounded=0;entryX=0.5;entryY=1;entryDx=0;entryDy=0;exitX=0.707;exitY=0.006;exitDx=0;exitDy=0;exitPerimeter=0;" edge="1" parent="1" source="tpY24qlCxXJvmTXxlrgN-34" target="tpY24qlCxXJvmTXxlrgN-6">
          <mxGeometry width="50" height="50" relative="1" as="geometry">
            <mxPoint x="645" y="1030" as="sourcePoint" />
            <mxPoint x="695" y="980" as="targetPoint" />
          </mxGeometry>
        </mxCell>
        <mxCell id="tpY24qlCxXJvmTXxlrgN-107" value="" style="endArrow=none;html=1;rounded=0;entryX=0.75;entryY=1;entryDx=0;entryDy=0;" edge="1" parent="1" target="tpY24qlCxXJvmTXxlrgN-6">
          <mxGeometry width="50" height="50" relative="1" as="geometry">
            <mxPoint x="860" y="1030" as="sourcePoint" />
            <mxPoint x="795" y="980" as="targetPoint" />
          </mxGeometry>
        </mxCell>
        <mxCell id="tpY24qlCxXJvmTXxlrgN-108" value="" style="endArrow=none;html=1;rounded=0;exitX=0.286;exitY=0.021;exitDx=0;exitDy=0;exitPerimeter=0;entryX=0.853;entryY=1.055;entryDx=0;entryDy=0;entryPerimeter=0;" edge="1" parent="1" source="tpY24qlCxXJvmTXxlrgN-36" target="tpY24qlCxXJvmTXxlrgN-6">
          <mxGeometry width="50" height="50" relative="1" as="geometry">
            <mxPoint x="810" y="1000" as="sourcePoint" />
            <mxPoint x="810" y="945" as="targetPoint" />
          </mxGeometry>
        </mxCell>
        <mxCell id="tpY24qlCxXJvmTXxlrgN-109" value="" style="endArrow=none;html=1;rounded=0;exitX=0.296;exitY=-0.05;exitDx=0;exitDy=0;exitPerimeter=0;" edge="1" parent="1" source="tpY24qlCxXJvmTXxlrgN-37">
          <mxGeometry width="50" height="50" relative="1" as="geometry">
            <mxPoint x="810" y="990" as="sourcePoint" />
            <mxPoint x="870" y="941" as="targetPoint" />
          </mxGeometry>
        </mxCell>
        <mxCell id="tpY24qlCxXJvmTXxlrgN-110" value="" style="endArrow=none;html=1;rounded=0;" edge="1" parent="1">
          <mxGeometry width="50" height="50" relative="1" as="geometry">
            <mxPoint x="735" y="1069.41" as="sourcePoint" />
            <mxPoint x="775" y="1069.41" as="targetPoint" />
          </mxGeometry>
        </mxCell>
        <mxCell id="tpY24qlCxXJvmTXxlrgN-111" value="" style="endArrow=none;html=1;rounded=0;exitX=1;exitY=0.573;exitDx=0;exitDy=0;exitPerimeter=0;" edge="1" parent="1" source="tpY24qlCxXJvmTXxlrgN-7">
          <mxGeometry width="50" height="50" relative="1" as="geometry">
            <mxPoint x="140" y="914.41" as="sourcePoint" />
            <mxPoint x="430" y="914.41" as="targetPoint" />
          </mxGeometry>
        </mxCell>
        <mxCell id="tpY24qlCxXJvmTXxlrgN-112" value="" style="endArrow=none;html=1;rounded=0;exitX=0;exitY=0;exitDx=0;exitDy=0;entryX=0.366;entryY=0.988;entryDx=0;entryDy=0;entryPerimeter=0;" edge="1" parent="1" source="tpY24qlCxXJvmTXxlrgN-64" target="tpY24qlCxXJvmTXxlrgN-33">
          <mxGeometry width="50" height="50" relative="1" as="geometry">
            <mxPoint x="30" y="890" as="sourcePoint" />
            <mxPoint x="150" y="770" as="targetPoint" />
          </mxGeometry>
        </mxCell>
        <mxCell id="tpY24qlCxXJvmTXxlrgN-113" value="" style="endArrow=none;html=1;rounded=0;exitX=0.75;exitY=0;exitDx=0;exitDy=0;" edge="1" parent="1" source="tpY24qlCxXJvmTXxlrgN-7">
          <mxGeometry width="50" height="50" relative="1" as="geometry">
            <mxPoint x="20" y="870" as="sourcePoint" />
            <mxPoint x="60" y="770" as="targetPoint" />
          </mxGeometry>
        </mxCell>
        <mxCell id="tpY24qlCxXJvmTXxlrgN-114" value="" style="endArrow=none;html=1;rounded=0;" edge="1" parent="1">
          <mxGeometry width="50" height="50" relative="1" as="geometry">
            <mxPoint x="50" y="762.82" as="sourcePoint" />
            <mxPoint x="90" y="762.82" as="targetPoint" />
          </mxGeometry>
        </mxCell>
        <mxCell id="tpY24qlCxXJvmTXxlrgN-115" value="" style="endArrow=none;html=1;rounded=0;exitX=0.5;exitY=0;exitDx=0;exitDy=0;entryX=0.662;entryY=0.918;entryDx=0;entryDy=0;entryPerimeter=0;" edge="1" parent="1" source="tpY24qlCxXJvmTXxlrgN-7" target="tpY24qlCxXJvmTXxlrgN-32">
          <mxGeometry width="50" height="50" relative="1" as="geometry">
            <mxPoint y="834" as="sourcePoint" />
            <mxPoint x="-50" y="764" as="targetPoint" />
          </mxGeometry>
        </mxCell>
        <mxCell id="tpY24qlCxXJvmTXxlrgN-116" value="" style="endArrow=none;html=1;rounded=0;" edge="1" parent="1">
          <mxGeometry width="50" height="50" relative="1" as="geometry">
            <mxPoint x="-260" y="920" as="sourcePoint" />
            <mxPoint x="-60" y="920" as="targetPoint" />
          </mxGeometry>
        </mxCell>
        <mxCell id="tpY24qlCxXJvmTXxlrgN-117" value="" style="endArrow=none;html=1;rounded=0;" edge="1" parent="1">
          <mxGeometry width="50" height="50" relative="1" as="geometry">
            <mxPoint x="-300.59000000000003" y="877.5" as="sourcePoint" />
            <mxPoint x="-300.59000000000003" y="717.5" as="targetPoint" />
          </mxGeometry>
        </mxCell>
        <mxCell id="tpY24qlCxXJvmTXxlrgN-118" value="" style="endArrow=none;html=1;rounded=0;entryX=0.283;entryY=1.024;entryDx=0;entryDy=0;exitX=1;exitY=0;exitDx=0;exitDy=0;entryPerimeter=0;" edge="1" parent="1" source="tpY24qlCxXJvmTXxlrgN-3" target="tpY24qlCxXJvmTXxlrgN-24">
          <mxGeometry width="50" height="50" relative="1" as="geometry">
            <mxPoint x="-270" y="655" as="sourcePoint" />
            <mxPoint x="-180" y="550" as="targetPoint" />
          </mxGeometry>
        </mxCell>
        <mxCell id="tpY24qlCxXJvmTXxlrgN-119" value="" style="endArrow=none;html=1;rounded=0;entryX=0.592;entryY=0.99;entryDx=0;entryDy=0;entryPerimeter=0;exitX=0.869;exitY=-0.021;exitDx=0;exitDy=0;exitPerimeter=0;" edge="1" parent="1" source="tpY24qlCxXJvmTXxlrgN-3" target="tpY24qlCxXJvmTXxlrgN-28">
          <mxGeometry width="50" height="50" relative="1" as="geometry">
            <mxPoint x="-260" y="650" as="sourcePoint" />
            <mxPoint x="-250" y="540" as="targetPoint" />
          </mxGeometry>
        </mxCell>
        <mxCell id="tpY24qlCxXJvmTXxlrgN-120" value="" style="endArrow=none;html=1;rounded=0;entryX=0.648;entryY=0.958;entryDx=0;entryDy=0;entryPerimeter=0;exitX=0.75;exitY=0;exitDx=0;exitDy=0;" edge="1" parent="1" source="tpY24qlCxXJvmTXxlrgN-3" target="tpY24qlCxXJvmTXxlrgN-29">
          <mxGeometry width="50" height="50" relative="1" as="geometry">
            <mxPoint x="-370" y="565" as="sourcePoint" />
            <mxPoint x="-320" y="515" as="targetPoint" />
          </mxGeometry>
        </mxCell>
        <mxCell id="tpY24qlCxXJvmTXxlrgN-121" value="" style="endArrow=none;html=1;rounded=0;entryX=0.5;entryY=1;entryDx=0;entryDy=0;exitX=0.602;exitY=0.057;exitDx=0;exitDy=0;exitPerimeter=0;" edge="1" parent="1" source="tpY24qlCxXJvmTXxlrgN-3" target="tpY24qlCxXJvmTXxlrgN-23">
          <mxGeometry width="50" height="50" relative="1" as="geometry">
            <mxPoint x="-330" y="650" as="sourcePoint" />
            <mxPoint x="-470" y="520" as="targetPoint" />
          </mxGeometry>
        </mxCell>
        <mxCell id="tpY24qlCxXJvmTXxlrgN-122" value="" style="endArrow=none;html=1;rounded=0;" edge="1" parent="1">
          <mxGeometry width="50" height="50" relative="1" as="geometry">
            <mxPoint x="-267.5" y="559.41" as="sourcePoint" />
            <mxPoint x="-242.5" y="559.41" as="targetPoint" />
          </mxGeometry>
        </mxCell>
        <mxCell id="tpY24qlCxXJvmTXxlrgN-123" value="" style="endArrow=none;html=1;rounded=0;exitX=0.5;exitY=0;exitDx=0;exitDy=0;" edge="1" parent="1" source="tpY24qlCxXJvmTXxlrgN-3">
          <mxGeometry width="50" height="50" relative="1" as="geometry">
            <mxPoint x="-460" y="605" as="sourcePoint" />
            <mxPoint x="-320" y="500" as="targetPoint" />
          </mxGeometry>
        </mxCell>
        <mxCell id="tpY24qlCxXJvmTXxlrgN-124" value="" style="endArrow=none;html=1;rounded=0;entryX=0.625;entryY=0.952;entryDx=0;entryDy=0;entryPerimeter=0;exitX=0.399;exitY=-0.052;exitDx=0;exitDy=0;exitPerimeter=0;" edge="1" parent="1" source="tpY24qlCxXJvmTXxlrgN-3" target="tpY24qlCxXJvmTXxlrgN-26">
          <mxGeometry width="50" height="50" relative="1" as="geometry">
            <mxPoint x="-475" y="650" as="sourcePoint" />
            <mxPoint x="-425" y="600" as="targetPoint" />
          </mxGeometry>
        </mxCell>
        <mxCell id="tpY24qlCxXJvmTXxlrgN-125" value="" style="endArrow=none;html=1;rounded=0;entryX=0.729;entryY=1.065;entryDx=0;entryDy=0;entryPerimeter=0;exitX=0.25;exitY=0;exitDx=0;exitDy=0;" edge="1" parent="1" source="tpY24qlCxXJvmTXxlrgN-3" target="tpY24qlCxXJvmTXxlrgN-30">
          <mxGeometry width="50" height="50" relative="1" as="geometry">
            <mxPoint x="-470" y="707.5" as="sourcePoint" />
            <mxPoint x="-420" y="657.5" as="targetPoint" />
          </mxGeometry>
        </mxCell>
        <mxCell id="tpY24qlCxXJvmTXxlrgN-126" value="" style="endArrow=none;html=1;rounded=0;entryX=1;entryY=1;entryDx=0;entryDy=0;exitX=0;exitY=0.25;exitDx=0;exitDy=0;" edge="1" parent="1" source="tpY24qlCxXJvmTXxlrgN-3" target="tpY24qlCxXJvmTXxlrgN-27">
          <mxGeometry width="50" height="50" relative="1" as="geometry">
            <mxPoint x="-430" y="764" as="sourcePoint" />
            <mxPoint x="-380" y="714" as="targetPoint" />
          </mxGeometry>
        </mxCell>
      </root>
    </mxGraphModel>
  </diagram>
</mxfile>
